<svg viewBox="0 0 400 400" class="modal-svg" fill="none" xmlns="http://www.w3.org/2000/svg"><defs><radialGradient id="bgGradQ" cx="50%" cy="50%" r="50%"><stop offset="0%" stop-color="#1a3d37"></stop><stop offset="100%" stop-color="#0b0c10"></stop></radialGradient><linearGradient id="jadeGrad" x1="0%" y1="0%" x2="100%" y2="100%"><stop offset="0%" stop-color="#0df2c9"></stop><stop offset="50%" stop-color="#05a88a"></stop><stop offset="100%" stop-color="#025e4d"></stop></linearGradient><linearGradient id="goldGrad" x1="0%" y1="0%" x2="100%" y2="100%"><stop offset="0%" stop-color="#ffd700"></stop><stop offset="100%" stop-color="#b8860b"></stop></linearGradient><filter id="glowQ" x="-20%" y="-20%" width="140%" height="140%"><feGaussianBlur stdDeviation="8" result="blur"></feGaussianBlur><feComposite in="SourceGraphic" in2="blur" operator="over"></feComposite></filter></defs><circle cx="200" cy="200" r="180" fill="url(#bgGradQ)" stroke="url(#goldGrad)" stroke-width="2" stroke-dasharray="5 5"></circle><path d="M200,200 Q280,120 300,200 T200,320 T100,200 T200,120" stroke="#0df2c9" stroke-width="1.5" stroke-opacity="0.4" stroke-dasharray="10 5"></path><path d="M200,200 Q120,280 100,200 T200,80 T300,200" stroke="#ffd700" stroke-width="1" stroke-opacity="0.3"></path><path d="M 200 90 
         C 280 90, 310 150, 310 200 
         C 310 280, 240 310, 200 310 
         C 140 310, 90 260, 90 200 
         C 90 130, 160 110, 200 130 
         C 240 150, 250 200, 220 230 
         C 190 250, 160 220, 170 190 
         C 175 175, 195 175, 200 190" stroke="url(#jadeGrad)" stroke-width="24" stroke-linecap="round" stroke-linejoin="round" filter="url(#glowQ)"></path><path d="M 200 90 
         C 280 90, 310 150, 310 200 
         C 310 280, 240 310, 200 310 
         C 140 310, 90 260, 90 200
         C 90 130, 160 110, 200 130" stroke="url(#goldGrad)" stroke-width="3" stroke-linecap="round" stroke-dasharray="8 12"></path><g stroke="url(#goldGrad)" stroke-width="2" fill="url(#jadeGrad)"><path d="M 200 90 C 200 50, 180 30, 170 40 C 175 60, 190 80, 200 90 Z"></path><path d="M 200 90 C 220 50, 200 30, 190 40 C 195 60, 200 80, 200 90 Z"></path><path d="M 200 90 C 240 60, 230 40, 215 45 C 215 65, 205 85, 200 90 Z"></path><path d="M 310 200 C 350 200, 360 180, 350 170 C 335 175, 320 190, 310 200 Z"></path><path d="M 310 200 C 350 220, 360 240, 345 250 C 335 240, 320 215, 310 200 Z"></path><path d="M 90 200 C 50 200, 40 180, 50 170 C 65 175, 80 190, 90 200 Z"></path><path d="M 90 200 C 50 220, 40 240, 55 250 C 65 240, 80 215, 90 200 Z"></path></g><g transform="translate(200, 90)"><path d="M -15 -10 L 15 -10 L 25 15 L -25 15 Z" fill="url(#jadeGrad)" stroke="url(#goldGrad)" stroke-width="2"></path><circle cx="-8" cy="2" r="3" fill="#ff4a57"></circle><circle cx="8" cy="2" r="3" fill="#ff4a57"></circle><path d="M -10 15 L -8 22 L -6 15 M 6 15 L 8 22 L 10 15" stroke="url(#goldGrad)" stroke-width="2" fill="white"></path><path d="M -5 -10 Q 0 -30 5 -10" stroke="url(#goldGrad)" stroke-width="2" fill="url(#jadeGrad)"></path></g><g transform="translate(200, 190)"><circle cx="0" cy="0" r="8" fill="url(#goldGrad)"></circle><circle cx="0" cy="-6" r="6" fill="url(#goldGrad)"></circle><circle cx="0" cy="6" r="6" fill="url(#goldGrad)"></circle></g></svg>