<svg viewBox="0 0 400 400" class="modal-svg" fill="none" xmlns="http://www.w3.org/2000/svg"><defs><radialGradient id="bgGradM" cx="50%" cy="50%" r="50%"><stop offset="0%" stop-color="#30150b"></stop><stop offset="100%" stop-color="#0b0c10"></stop></radialGradient><linearGradient id="boneGrad" x1="0%" y1="0%" x2="100%" y2="100%"><stop offset="0%" stop-color="#fffae6"></stop><stop offset="60%" stop-color="#e3d9c3"></stop><stop offset="100%" stop-color="#b5aa94"></stop></linearGradient><linearGradient id="crimsonGrad" x1="0%" y1="0%" x2="100%" y2="100%"><stop offset="0%" stop-color="#ff4a57"></stop><stop offset="100%" stop-color="#900c14"></stop></linearGradient><filter id="glowM" x="-20%" y="-20%" width="140%" height="140%"><feGaussianBlur stdDeviation="8" result="blur"></feGaussianBlur><feComposite in="SourceGraphic" in2="blur" operator="over"></feComposite></filter></defs><circle cx="200" cy="200" r="180" fill="url(#bgGradM)" stroke="url(#crimsonGrad)" stroke-width="2" stroke-opacity="0.4"></circle><g fill="#fffae6" opacity="0.6"><circle cx="90" cy="110" r="1.5"></circle><circle cx="310" cy="110" r="1.5"></circle><circle cx="80" cy="250" r="1.5"></circle><circle cx="320" cy="250" r="1.5"></circle><path d="M 140 85 L 140 95 M 135 90 L 145 90" stroke="#fffae6" stroke-width="1"></path><path d="M 260 85 L 260 95 M 255 90 L 265 90" stroke="#fffae6" stroke-width="1"></path></g><g transform="translate(100, 100)" filter="url(#glowM)"><path d="M 20 20 L 40 -15 L 100 -5 L 160 -15 L 180 20 Z" fill="url(#crimsonGrad)" stroke="#ffd700" stroke-width="2"></path><path d="M 30 40 
           C 30 20, 170 20, 170 40 
           C 170 80, 160 100, 150 110
           L 145 150
           C 145 170, 55 170, 55 150
           L 50 110
           C 40 100, 30 80, 30 40 Z" fill="url(#boneGrad)" stroke="#000" stroke-width="3.5"></path><rect x="52" y="55" width="36" height="36" rx="18" fill="#140708" stroke="url(#crimsonGrad)" stroke-width="3"></rect><rect x="112" y="55" width="36" height="36" rx="18" fill="#140708" stroke="url(#crimsonGrad)" stroke-width="3"></rect><circle cx="70" cy="73" r="5" fill="#ff4a57"></circle><circle cx="130" cy="73" r="5" fill="#ff4a57"></circle><polygon points="100,85 90,105 110,105" fill="#140708" stroke="#000" stroke-width="2"></polygon><path d="M 60 130 L 140 130" stroke="#140708" stroke-width="4.5" stroke-linecap="round"></path><path d="M 70 118 L 70 142 
           M 85 118 L 85 142 
           M 100 118 L 100 142 
           M 115 118 L 115 142 
           M 130 118 L 130 142" stroke="#140708" stroke-width="3.5" stroke-linecap="round"></path><path d="M 80 32 L 100 45 L 120 32" stroke="url(#crimsonGrad)" stroke-width="2.5" fill="none"></path><circle cx="20" cy="100" r="14" fill="#ffd700" stroke="#000" stroke-width="2"></circle><circle cx="20" cy="100" r="6" fill="#ff4a57"></circle><circle cx="180" cy="100" r="14" fill="#ffd700" stroke="#000" stroke-width="2"></circle><circle cx="180" cy="100" r="6" fill="#ff4a57"></circle></g></svg>