<svg viewBox="0 0 400 400" class="modal-svg" fill="none" xmlns="http://www.w3.org/2000/svg"><defs><radialGradient id="bgGradCookie" cx="50%" cy="50%" r="50%"><stop offset="0%" stop-color="#3d2a1a"></stop><stop offset="100%" stop-color="#0b0c10"></stop></radialGradient><radialGradient id="doughGrad" cx="40%" cy="35%" r="75%"><stop offset="0%" stop-color="#e8b874"></stop><stop offset="60%" stop-color="#c98f4e"></stop><stop offset="100%" stop-color="#9a6a33"></stop></radialGradient><radialGradient id="chipGrad" cx="35%" cy="30%" r="80%"><stop offset="0%" stop-color="#6b4226"></stop><stop offset="100%" stop-color="#2e1a0c"></stop></radialGradient><filter id="glowCookie" x="-20%" y="-20%" width="140%" height="140%"><feGaussianBlur stdDeviation="6" result="blur"></feGaussianBlur><feComposite in="SourceGraphic" in2="blur" operator="over"></feComposite></filter></defs><circle cx="200" cy="200" r="180" fill="url(#bgGradCookie)" stroke="#e8b874" stroke-width="2" stroke-dasharray="5 5"></circle><path d="M 200 60 C 290 55, 345 130, 340 205 C 336 285, 275 345, 198 342 C 118 339, 58 278, 62 198 C 66 120, 125 63, 200 60 Z" fill="url(#doughGrad)" stroke="#8a5c2b" stroke-width="4" filter="url(#glowCookie)"></path><path d="M 110 130 C 140 100, 180 92, 205 95 M 300 160 C 310 185, 312 215, 305 245" stroke="#f3d3a0" stroke-width="6" stroke-linecap="round" stroke-opacity="0.5"></path><g fill="url(#chipGrad)" stroke="#1d1108" stroke-width="1.5"><ellipse cx="150" cy="140" rx="17" ry="15" transform="rotate(-15 150 140)"></ellipse><ellipse cx="245" cy="125" rx="15" ry="13" transform="rotate(20 245 125)"></ellipse><ellipse cx="290" cy="200" rx="16" ry="14" transform="rotate(-10 290 200)"></ellipse><ellipse cx="200" cy="200" rx="19" ry="16" transform="rotate(8 200 200)"></ellipse><ellipse cx="120" cy="220" rx="15" ry="13" transform="rotate(25 120 220)"></ellipse><ellipse cx="165" cy="290" rx="16" ry="14" transform="rotate(-20 165 290)"></ellipse><ellipse cx="255" cy="280" rx="17" ry="14" transform="rotate(12 255 280)"></ellipse></g><g stroke="#7a4a20" stroke-width="2" stroke-linecap="round" stroke-opacity="0.6"><path d="M 175 165 q 8 6 16 2"></path><path d="M 225 235 q 9 5 17 0"></path><path d="M 135 180 q 7 5 14 2"></path><path d="M 275 155 q 8 5 15 1"></path><path d="M 205 320 q 8 4 15 0"></path></g><g fill="#f6e2bd" fill-opacity="0.8"><circle cx="140" cy="128" r="3"></circle><circle cx="236" cy="114" r="2.5"></circle><circle cx="282" cy="190" r="3"></circle><circle cx="192" cy="190" r="3"></circle><circle cx="112" cy="211" r="2.5"></circle><circle cx="157" cy="281" r="3"></circle><circle cx="247" cy="271" r="2.5"></circle></g></svg>
