<svg viewBox="0 0 400 400" class="modal-svg" fill="none" xmlns="http://www.w3.org/2000/svg"><defs><radialGradient id="bgGradSandwich" cx="50%" cy="50%" r="50%"><stop offset="0%" stop-color="#2a2038"></stop><stop offset="100%" stop-color="#0b0c10"></stop></radialGradient><radialGradient id="waferGrad" cx="40%" cy="30%" r="80%"><stop offset="0%" stop-color="#4a3428"></stop><stop offset="60%" stop-color="#2e1e14"></stop><stop offset="100%" stop-color="#1a0f08"></stop></radialGradient><linearGradient id="creamGrad" x1="0%" y1="0%" x2="0%" y2="100%"><stop offset="0%" stop-color="#fffdf5"></stop><stop offset="100%" stop-color="#e6ddc8"></stop></linearGradient><filter id="glowSandwich" x="-20%" y="-20%" width="140%" height="140%"><feGaussianBlur stdDeviation="6" result="blur"></feGaussianBlur><feComposite in="SourceGraphic" in2="blur" operator="over"></feComposite></filter></defs><circle cx="200" cy="200" r="180" fill="url(#bgGradSandwich)" stroke="#e6ddc8" stroke-width="2" stroke-dasharray="5 5"></circle><g filter="url(#glowSandwich)"><ellipse cx="200" cy="255" rx="130" ry="42" fill="url(#waferGrad)" stroke="#120a05" stroke-width="3"></ellipse><ellipse cx="200" cy="238" rx="130" ry="42" fill="#3a281c" stroke="#120a05" stroke-width="2"></ellipse><ellipse cx="200" cy="215" rx="118" ry="30" fill="url(#creamGrad)"></ellipse><rect x="82" y="185" width="236" height="32" rx="16" fill="url(#creamGrad)"></rect><ellipse cx="200" cy="185" rx="130" ry="42" fill="url(#waferGrad)" stroke="#120a05" stroke-width="3"></ellipse><ellipse cx="200" cy="168" rx="130" ry="42" fill="#3a281c" stroke="#120a05" stroke-width="2"></ellipse><ellipse cx="200" cy="168" rx="112" ry="34" fill="none" stroke="#1a0f08" stroke-width="3"></ellipse><ellipse cx="200" cy="168" rx="60" ry="18" fill="none" stroke="#1a0f08" stroke-width="3"></ellipse></g><g fill="#1a0f08"><ellipse cx="200" cy="140" rx="6" ry="3.5"></ellipse><ellipse cx="152" cy="148" rx="6" ry="3.5" transform="rotate(-18 152 148)"></ellipse><ellipse cx="248" cy="148" rx="6" ry="3.5" transform="rotate(18 248 148)"></ellipse><ellipse cx="120" cy="163" rx="6" ry="3.5" transform="rotate(-32 120 163)"></ellipse><ellipse cx="280" cy="163" rx="6" ry="3.5" transform="rotate(32 280 163)"></ellipse><ellipse cx="200" cy="196" rx="6" ry="3.5"></ellipse><ellipse cx="152" cy="189" rx="6" ry="3.5" transform="rotate(18 152 189)"></ellipse><ellipse cx="248" cy="189" rx="6" ry="3.5" transform="rotate(-18 248 189)"></ellipse></g><g stroke="#5a4232" stroke-width="2" stroke-linecap="round" stroke-opacity="0.7"><path d="M 105 250 q 10 6 20 2"></path><path d="M 275 252 q 10 6 20 0"></path><path d="M 185 268 q 12 5 24 0"></path></g><ellipse cx="160" cy="152" rx="26" ry="8" fill="#ffffff" fill-opacity="0.12" transform="rotate(-12 160 152)"></ellipse></svg>
